<svg height="32" width="32" xmlns="http://www.w3.org/2000/svg"><path d="m0 15.5 15.5-15.5 15.5 15.5-15.5 15.5z" fill="#f57900"/><g fill="#fff"><path d="m15.5 28c-1.93 0-2.5-1.15-2.5-2.5 0-1.84 1.03-2.5 2.5-2.5 1.12 0 2.5.42 2.5 2.5 0 2.12-1.45 2.5-2.5 2.5z"/><path d="m14.23 21-.4-3.72c2.83-1.04 4.18-3.32 4.31-6.2 0-1.18-.3-3.08-2.38-3.08-2.04 0-2.45 2.27-2.45 4-1.26 0-2.3-.18-3.12-.55-.79-.39-1.19-.96-1.19-1.71 0-3.45 4.86-3.74 6.51-3.74 3.83 0 7.49 1.76 7.49 5.56 0 2.32-.89 4.58-6.08 6.68l-.4 2.75z"/></g></svg>